<svg height="481pt" viewBox="-21 0 481 481.82999" width="481pt" xmlns="http://www.w3.org/2000/svg"><path d="m439.855469 231.359375v108.570313c-.003907 11.042968-8.957031 19.996093-20 20h-63.128907v-148.570313h63.128907c11.046875 0 20 8.953125 20 20zm0 0" fill="#00efd1"/><path d="m303.753906 231.769531v112.011719h-80.050781l-38.308594 39.980469-9.808593-39.980469h-39.070313v-112.011719zm0 0" fill="#00acea"/><path d="m89.894531 211.359375v148.570313h-69.480469c-11.042968-.003907-19.996093-8.957032-20-20v-108.570313c0-11.046875 8.957032-20 20-20zm0 0" fill="#00efd1"/><path d="m398.613281 211.359375h-14v-43.660156c0-40.808594-16.765625-79.257813-47.207031-108.261719-30.472656-29.023438-71.007812-45.160156-114.136719-45.4375-88.898437 0-161.253906 68.949219-161.253906 153.699219v43.660156h-14v-43.660156c0-92.46875 78.640625-167.699219 175.300781-167.699219 46.75.300781 90.683594 17.8125 123.746094 49.300781 33.246094 31.671875 51.550781 73.722657 51.550781 118.398438zm0 0" fill="#f4b844"/><path d="m352.636719 447.761719h-65.5c-3.867188 0-7-3.136719-7-7 0-3.867188 3.132812-7 7-7h65.5c13.800781-.015625 24.984375-11.199219 25-25v-47.5c0-3.867188 3.132812-7 7-7 3.863281 0 7 3.132812 7 7v47.5c-.027344 21.527343-17.472657 38.972656-39 39zm0 0" fill="#f4b844"/><path d="m293.894531 441.449219c0 22.300781-18.078125 40.378906-40.378906 40.378906s-40.378906-18.078125-40.378906-40.378906 18.078125-40.378907 40.378906-40.378907 40.378906 18.078126 40.378906 40.378907zm0 0" fill="#fedb41"/><g fill="#00efd1"><path d="m230.046875 279.011719h-60.5c-3.867187 0-7-3.136719-7-7 0-3.867188 3.132813-7 7-7h60.5c3.863281 0 7 3.132812 7 7 0 3.863281-3.136719 7-7 7zm0 0"/><path d="m270.726562 309.078125h-101.179687c-3.867187 0-7-3.132813-7-7 0-3.863281 3.132813-7 7-7h101.179687c3.863282 0 7 3.136719 7 7 0 3.867187-3.136718 7-7 7zm0 0"/></g></svg>