<svg width="388" height="388" viewBox="0 0 388 388" fill="none" xmlns="http://www.w3.org/2000/svg">
<g clip-path="url(#clip0)">
<path d="M332.432 240.8V336.73C332.432 356.01 302.482 372.74 258.512 381.17C237.072 385.145 215.307 387.097 193.502 387C116.762 387 54.572 364.51 54.572 336.73V240.8C54.572 268.59 116.762 291.08 193.502 291.08C270.242 291.08 332.432 268.59 332.432 240.8Z" fill="#00EFD1"/>
<path d="M332.432 238.817V240.797C332.432 268.587 270.242 291.077 193.502 291.077C116.762 291.077 54.572 268.587 54.572 240.797V145.537C54.572 173.317 116.762 195.817 193.502 195.817C270.242 195.817 332.432 173.317 332.432 145.537V238.817Z" fill="#F8DB60"/>
<path d="M332.432 50.2695V145.54C332.432 173.32 270.242 195.82 193.502 195.82C116.762 195.82 54.572 173.32 54.572 145.54V50.2695C54.572 78.0395 116.772 100.55 193.502 100.55C270.232 100.55 332.432 78.0395 332.432 50.2695Z" fill="#4CAAE4"/>
<path d="M193.502 0C270.232 0 332.432 22.51 332.432 50.27C332.432 78.03 270.232 100.55 193.502 100.55C116.772 100.55 54.572 78.04 54.572 50.27C54.572 22.5 116.772 0 193.502 0Z" fill="#00EFD1"/>
<path d="M216.502 156.5H170.502C164.979 156.5 160.502 152.023 160.502 146.5C160.502 140.977 164.979 136.5 170.502 136.5H216.502C222.025 136.5 226.502 140.977 226.502 146.5C226.502 152.023 222.025 156.5 216.502 156.5Z" fill="#173860"/>
<path d="M216.502 250.5H170.502C164.979 250.5 160.502 246.023 160.502 240.5C160.502 234.977 164.979 230.5 170.502 230.5H216.502C222.025 230.5 226.502 234.977 226.502 240.5C226.502 246.023 222.025 250.5 216.502 250.5Z" fill="#173860"/>
<path d="M216.502 347.5H170.502C164.979 347.5 160.502 343.023 160.502 337.5C160.502 331.977 164.979 327.5 170.502 327.5H216.502C222.025 327.5 226.502 331.977 226.502 337.5C226.502 343.023 222.025 347.5 216.502 347.5Z" fill="#173860"/>
</g>
<defs>
<clipPath id="clip0">
<rect width="387.003" height="387.003" fill="white"/>
</clipPath>
</defs>
</svg>
