<svg height="640pt" viewBox="0 -52 640 640" width="640pt" xmlns="http://www.w3.org/2000/svg"><path d="m320.964844 59.28125-61.492188-59.28125h-211.214844l7.855469 219.214844h532.734375v-159.933594zm0 0" fill="#00efd1"/><path d="m536.460938 219.214844v.550781h-432.921876v-105.332031h432.921876zm0 0" fill="#fedb41"/><path d="m640 205.980469-58.042969 329.097656h-523.222656l-58.734375-329.097656zm0 0" fill="#00acea"/><path d="m379.421875 417.339844c12.824219-16.960938 19.855469-37.507813 19.855469-59.011719 0-54.183594-44.121094-98.167969-98.441406-98.167969-54.324219 0-98.4375 43.984375-98.4375 98.167969 0 54.179687 44.113281 98.164063 98.4375 98.164063 21.644531 0 42.050781-6.894532 59.007812-19.578126l40.535156 40.257813c2.753906 2.621094 6.203125 4 9.792969 4 3.582031 0 7.03125-1.378906 9.785156-4 5.375-5.375 5.375-14.0625 0-19.4375zm-149.453125-59.011719c0-38.878906 31.847656-70.589844 70.867188-70.589844 39.015624 0 70.867187 31.710938 70.867187 70.589844 0 18.472656-7.171875 35.984375-20.132813 49.21875-.273437.273437-.550781.417969-.824218.691406-.277344.277344-.414063.550781-.691406.824219-13.234376 12.820312-30.742188 19.851562-49.21875 19.851562-39.15625 0-70.867188-31.707031-70.867188-70.585937zm0 0" fill="#083863"/></svg>