<svg height="440pt" viewBox="0 0 440 440.23823" width="440pt" xmlns="http://www.w3.org/2000/svg"><path d="m329.550781 63.777344c-3.597656-23.6875 8.429688-47.007813 29.816407-57.816406 21.382812-10.808594 47.292968-6.65625 64.230468 10.289062 1.222656 1.207031 2.363282 2.457031 3.429688 3.75l-39.527344 19.449219 16.199219 32.898437 36.140625-17.789062c.484375 29.1875-21.742188 53.757812-50.832032 56.1875-29.09375 2.433594-55.089843-18.101563-59.457031-46.96875zm0 0" fill="#00efd1"/><path d="m435.167969 206.648438 2.820312 46.039062-47.699219 4.480469c-4.378906 21-12.53125 41.03125-24.058593 59.121093l30.589843 37.097657-45.671874 45.671875-37.097657-30.582032c-18.042969 11.628907-38.097656 19.785157-59.132812 24.050782l-4.480469 47.699218-64.417969.011719-4.480469-47.710937c-21.003906-4.371094-41.039062-12.519532-59.128906-24.050782l-37.101562 30.582032-44.019532-44.019532 30.578126-37.101562c-11.527344-18.089844-19.675782-38.125-24.046876-59.128906l-47.703124-4.480469v-64.417969l47.703124-4.492187c4.269532-21.03125 12.425782-41.078125 24.046876-59.121094l-30.578126-37.089844 45.671876-45.667969 37.097656 30.578126c18.089844-11.527344 38.121094-19.679688 59.121094-24.058594l4.488281-47.699219 46.042969 2.828125-14.042969 86.730469c-71.796875 0-130 58.203125-130 130s58.203125 130 130 130 130-58.203125 130-130zm0 0" fill="#00acea"/><path d="m376.839844 110.417969-.019532.140625-126.351562 126.339844-.648438.070312c-3.5-24.117188-22.328124-43.128906-46.410156-46.859375l.039063-.230469 126.101562-126.101562c3.671875 24.316406 22.925781 43.300781 47.289063 46.640625zm0 0" fill="#fedb41"/><path d="m249.820312 236.96875c3.429688 23.648438-8.671874 46.835938-30.035156 57.542969-21.359375 10.710937-47.179687 6.535156-64.074218-10.363281-1.222657-1.21875-2.363282-2.460938-3.433594-3.75l39.53125-19.449219-16.199219-32.902344-36.140625 17.792969c-.476562-29.257813 21.851562-53.851563 51.015625-56.195313s55.132813 18.367188 59.335937 47.324219zm0 0" fill="#00efd1"/></svg>