<svg height="436pt" viewBox="0 -24 436.26 436" width="436pt" xmlns="http://www.w3.org/2000/svg"><g fill="#00acea"><path d="m362.980469 184.050781h61.628906v203.738281h-61.628906zm0 0"/><path d="m247.550781 242.199219h61.628907v145.589843h-61.628907zm0 0"/><path d="m132.121094 184.050781h61.628906v203.738281h-61.628906zm0 0"/><path d="m16.691406 277.078125h61.628906v110.710937h-61.628906zm0 0"/></g><path d="m243.109375 116.507812-.160156-.101562-59.839844-38.5625c-.113281-.074219-.222656-.148438-.332031-.230469l3.800781-5.148437 3.035156-4.707032 59.859375 38.574219zm0 0" fill="#fedb41"/><path d="m307.09375 104.832031 54.542969-45.699219 7.707031 9.195313-54.542969 45.699219zm0 0" fill="#fedb41"/><path d="m58.6875 141.472656 59.1875-57.863281 8.386719 8.582031-59.1875 57.859375zm0 0" fill="#fedb41"/><path d="m150.988281 24.109375c-23.222656-.023437-42.0625 18.792969-42.070312 42.015625-.007813 23.222656 18.816406 42.050781 42.039062 42.046875 23.222657-.003906 42.039063-18.839844 42.023438-42.0625-.023438-23.183594-18.808594-41.972656-41.992188-42zm0 0" fill="#00efd1"/><path d="m278.960938 84.101562c-23.199219-.007812-42.007813 18.792969-42.011719 41.992188-.003907 23.195312 18.800781 42.003906 41.996093 42.007812 23.199219 0 42.003907-18.804687 42.003907-42-.046875-23.175781-18.816407-41.949218-41.988281-42zm0 0" fill="#00efd1"/><path d="m394.269531.128906c-23.191406 0-41.988281 18.800782-41.988281 41.992188 0 23.1875 18.796875 41.988281 41.988281 41.988281 23.191407 0 41.992188-18.800781 41.992188-41.988281-.027344-23.179688-18.8125-41.964844-41.992188-41.992188zm0 0" fill="#00efd1"/><path d="m66.363281 140.875c-15.789062-11.242188-37.21875-10.222656-51.867187 2.46875-14.648438 12.695312-18.707032 33.761719-9.828125 50.988281 8.882812 17.230469 28.402343 26.140625 47.238281 21.570313 18.835938-4.574219 32.097656-21.441406 32.09375-40.824219.046875-13.59375-6.535156-26.355469-17.636719-34.203125zm0 0" fill="#00efd1"/></svg>