<svg width="71" height="73" viewBox="0 0 71 73" fill="none" xmlns="http://www.w3.org/2000/svg">
    <g id="Page 1">
        <g id="005   Stone Mason">
            <path id="Shape"
                  d="M15.8167 8.51679V8.60195L14.2837 12.9819C12.9078 14.7736 10.7756 15.8217 8.5167 15.8168C8.11732 15.8156 7.71865 15.783 7.32437 15.7194C3.81456 15.1284 1.2426 12.0924 1.23658 8.53314C1.23057 4.97393 3.79224 1.92919 7.30003 1.32631C7.70138 1.25259 8.10864 1.21594 8.5167 1.21681C10.4528 1.21681 12.3095 1.98591 13.6786 3.35493C15.0476 4.72394 15.8167 6.58071 15.8167 8.51679Z"
                  fill="#DFC49C"/>
            <path id="Shape_2"
                  d="M13.3833 8.51665V8.60182L13.7325 13.1546C12.6533 14.5659 9.16153 15.403 7.32437 15.7193C3.81456 15.1283 1.2426 12.0922 1.23658 8.533C1.23057 4.97379 3.79224 1.92905 7.30003 1.32617C10.8123 1.91475 13.3848 4.95544 13.3833 8.51665Z"
                  fill="#FFE0B2"/>
            <path id="Shape_3"
                  d="M17.2767 54.7379C16.4858 57.9377 13.9673 69.0093 13.9673 69.0093C13.5682 70.6348 12.1128 71.779 10.439 71.7833C10.1396 71.7829 9.84139 71.7461 9.55086 71.6738C7.60386 71.1775 6.41327 69.213 6.87421 67.2573L9.73336 54.8839C9.87939 54.2662 9.86684 53.6217 9.69686 53.0102L6.04688 40.1501L6.69171 37.4369L7.28787 34.9062L13.6267 40.1501L17.2402 52.8642C17.4162 53.4748 17.4288 54.1209 17.2767 54.7379Z"
                  fill="#0377BC"/>
            <path id="Shape_4"
                  d="M13.6267 54.7384C12.8359 57.9383 10.3174 69.0099 10.3174 69.0099C10.0852 69.9731 9.46402 70.7969 8.60187 71.2851C7.18878 70.4813 6.48282 68.8358 6.87421 67.2579L9.73336 54.8844C9.87939 54.2668 9.86684 53.6223 9.69686 53.0108L6.04688 40.1507L6.69171 37.4375L9.9767 40.1507L13.5902 52.8648C13.7662 53.4754 13.7788 54.1215 13.6267 54.7384Z"
                  fill="#02A9F4"/>
            <path id="Shape_5"
                  d="M13.6265 40.1489L6.04673 40.1489C5.41076 40.1498 4.80055 39.8976 4.35085 39.4479C3.90114 38.9982 3.64893 38.388 3.64991 37.752V20.6823C3.65221 19.3918 4.16378 18.1544 5.0734 17.2391C5.69205 16.6298 6.45979 16.1935 7.29989 15.9738C7.6962 15.8651 8.10564 15.8119 8.51656 15.8156C11.2043 15.8156 13.3832 17.9945 13.3832 20.6823V39.285L13.6265 40.1489Z"
                  fill="#C81E1E"/>
            <path id="Shape_6"
                  d="M11.1932 40.1497L6.04673 40.1497C5.41076 40.1507 4.80055 39.8985 4.35085 39.4488C3.90114 38.9991 3.64893 38.3889 3.64991 37.7529V20.6831C3.65221 19.3926 4.16378 18.1553 5.0734 17.2399C5.69205 16.6306 6.45979 16.1943 7.29989 15.9746C9.4493 16.526 10.9517 18.4641 10.9499 20.6831V39.2859L11.1932 40.1497Z"
                  fill="#F44335"/>
            <path id="Shape_7"
                  d="M35.1495 15.4644L33.8598 19.6741L32.7405 23.3363H32.7283C32.0864 25.435 30.1159 26.8418 27.9225 26.7672H27.9103L27.2412 25.2829L23.9197 17.9708L23.7007 17.4841C23.7571 17.5051 23.8103 17.5338 23.8589 17.5693L24.9173 18.2628L26.7545 19.4429C26.9132 19.5506 27.1139 19.5758 27.2943 19.5109C27.4748 19.4459 27.6133 19.2986 27.667 19.1144L29.2973 13.7733L29.3338 13.676C29.7186 12.3981 30.895 11.5232 32.2295 11.5225H32.2417C32.5425 11.5252 32.8415 11.5703 33.1298 11.6563C34.7383 12.1512 35.6421 13.8553 35.1495 15.4644Z"
                  fill="#DFC49C"/>
            <path id="Shape_8"
                  d="M32.7161 14.2478L31.4265 18.4574L30.3071 22.1196H30.295C29.8466 23.6048 28.7096 24.7826 27.2411 25.2829C26.6776 25.4752 26.0844 25.5658 25.4892 25.5506H25.477L21.2673 16.2674C21.3237 16.2884 21.3769 16.3171 21.4255 16.3526L23.9197 17.9708L24.3212 18.2263C24.4962 18.3523 24.7282 18.3665 24.9173 18.2628L26.7545 19.4429C26.9132 19.5506 27.1139 19.5758 27.2943 19.5109C27.4748 19.4459 27.6133 19.2986 27.667 19.1144L29.2973 13.7733L29.3338 13.676C29.7185 12.3981 30.895 11.5232 32.2295 11.5225H32.2416C32.8239 12.3039 33.0001 13.3156 32.7161 14.2478Z"
                  fill="#FFE0B2"/>
            <path id="Shape_9"
                  d="M19.6857 18.6272L17.7512 14.4054L19.1504 10.9756L22.1677 12.3735L27.7644 24.528C28.3255 25.7511 27.7926 27.1977 26.572 27.7643C26.2503 27.9076 25.9022 27.9822 25.55 27.9833C24.5996 27.9857 23.7349 27.4345 23.3357 26.572L23.141 26.1583L19.6857 18.6272Z"
                  fill="#FF5722"/>
            <path id="Shape_10"
                  d="M64.4832 43.7994V48.6661H40.1499V43.7994C40.1522 37.7958 44.5334 32.6914 50.4672 31.7788H50.5159C51.1111 31.6809 51.7133 31.6321 52.3165 31.6328C55.5433 31.6328 58.6379 32.9147 60.9196 35.1963C63.2013 37.478 64.4832 40.5727 64.4832 43.7994Z"
                  fill="#DFC49C"/>
            <path id="Shape_11"
                  d="M60.8332 43.7999V48.6666H40.1499V43.7999C40.1522 37.7963 44.5334 32.6918 50.4672 31.7793H50.5159C56.4497 32.6918 60.8309 37.7963 60.8332 43.7999Z"
                  fill="#FFE0B2"/>
            <path id="Shape_12"
                  d="M59.6166 15.8172V24.5406C59.616 25.2012 59.4352 25.849 59.0934 26.4143L57.0251 29.8574C56.3715 30.9621 55.1817 31.6379 53.8982 31.6338H50.7349C49.4514 31.6379 48.2617 30.9621 47.6081 29.8574L45.5398 26.4143C45.198 25.849 45.0171 25.2012 45.0166 24.5406V16.1213C45.0112 12.4802 47.5785 9.34236 51.1486 8.62668C51.5975 8.54095 52.0544 8.50424 52.5113 8.51718C56.4631 8.63092 59.6097 11.8637 59.6166 15.8172Z"
                  fill="#DFC49C"/>
            <path id="Shape_13"
                  d="M57.1832 15.8165V24.5399C57.1827 25.2005 57.0018 25.8483 56.6601 26.4136L54.5917 29.8567C53.9381 30.9614 52.7484 31.6372 51.4649 31.6331H50.7349C49.4514 31.6372 48.2617 30.9614 47.6081 29.8567L45.5398 26.4136C45.198 25.8483 45.0171 25.2005 45.0166 24.5399V16.1206C45.0112 12.4795 47.5785 9.34165 51.1486 8.62598C52.6273 8.8784 53.9892 9.58916 55.0419 10.6578C56.4177 12.0212 57.1891 13.8795 57.1832 15.8165Z"
                  fill="#FFE0B2"/>
            <path id="Shape_14"
                  d="M43.7998 17.0332H45.0164V23.1165H43.7998C42.4559 23.1165 41.3665 22.0271 41.3665 20.6832V19.4665C41.3665 18.1226 42.4559 17.0332 43.7998 17.0332Z"
                  fill="#DFC49C"/>
            <path id="Shape_15"
                  d="M60.833 23.1172H59.6164V17.0339H60.833C62.1769 17.0339 63.2664 18.1233 63.2664 19.4672V20.6839C63.2664 22.0278 62.1769 23.1172 60.833 23.1172Z"
                  fill="#DFC49C"/>
            <path id="Rectangle path"
                  d="M66.9164 48.666H37.7165C36.3726 48.666 35.2832 49.7555 35.2832 51.0993V53.5327C35.2832 54.8766 36.3726 55.966 37.7165 55.966H66.9164C68.2603 55.966 69.3498 54.8766 69.3498 53.5327V51.0993C69.3498 49.7555 68.2603 48.666 66.9164 48.666Z"
                  fill="#6D4122"/>
            <path id="Rectangle path_2"
                  d="M63.2664 48.666H37.7165C36.3726 48.666 35.2832 49.7555 35.2832 51.0993V53.5327C35.2832 54.8766 36.3726 55.966 37.7165 55.966H63.2664C64.6103 55.966 65.6998 54.8766 65.6998 53.5327V51.0993C65.6998 49.7555 64.6103 48.666 63.2664 48.666Z"
                  fill="#825A2C"/>
            <path id="Shape_16"
                  d="M38.9333 55.9668H43.8V70.5667C43.8 71.2387 43.2553 71.7834 42.5833 71.7834H40.15C39.4781 71.7834 38.9333 71.2387 38.9333 70.5667V55.9668Z"
                  fill="#624421"/>
            <path id="Shape_17"
                  d="M60.8333 55.9668H65.6999V70.5667C65.6999 71.2387 65.1552 71.7834 64.4832 71.7834H62.0499C61.378 71.7834 60.8333 71.2387 60.8333 70.5667V55.9668Z"
                  fill="#624421"/>
            <path id="Shape_18"
                  d="M27.3749 71.7835H24.5961C23.9904 71.7836 23.4242 71.4833 23.0847 70.9818C22.7451 70.4804 22.6764 69.8432 22.9012 69.2809L23.742 67.1797C24.08 66.3317 24.9926 65.864 25.8784 66.0847L27.8178 66.5713C28.63 66.7745 29.1998 67.5043 29.1999 68.3416V69.9585C29.1999 70.9664 28.3828 71.7835 27.3749 71.7835Z"
                  fill="#F9EAB0"/>
            <path id="Shape_19"
                  d="M51.2214 71.7831H53.875C54.6825 71.7831 55.4374 71.3826 55.8901 70.7139C56.3428 70.0452 56.4343 69.1955 56.1343 68.4458L55.3642 66.521C54.9134 65.39 53.696 64.7663 52.5147 65.061L50.6313 65.5319C49.5482 65.8026 48.7883 66.7757 48.7881 67.8922V69.3497C48.7881 69.9951 49.0445 70.614 49.5008 71.0704C49.9571 71.5267 50.5761 71.7831 51.2214 71.7831Z"
                  fill="#F9EAB0"/>
            <path id="Shape_20"
                  d="M24.5766 21.9124L22.6908 27.4969C22.0185 29.4701 20.1642 30.796 18.0797 30.794C17.0811 30.7956 16.107 30.485 15.2935 29.9059L14.6973 29.4801L12.1667 27.6916L8.56535 25.1487C7.76118 24.5784 7.28465 23.6526 7.28786 22.6667C7.28807 22.035 7.48355 21.4189 7.84752 20.9026C8.46854 20.0088 9.52689 19.5239 10.6093 19.6372C11.1395 19.679 11.6484 19.864 12.0815 20.1726L12.1667 20.2334L15.0015 22.2409L16.7292 23.4697C16.8862 23.5794 17.0856 23.6087 17.2675 23.5489C17.4495 23.489 17.5926 23.347 17.6538 23.1656L18.7975 19.9171C19.2273 18.6927 20.3834 17.8732 21.681 17.8731C22.0249 17.8713 22.3665 17.9289 22.6908 18.0434C24.2744 18.5973 25.116 20.3238 24.5766 21.9124Z"
                  fill="#DFC49C"/>
            <path id="Shape_21"
                  d="M22.1433 20.6957L20.2575 26.2802C19.5852 28.2534 17.7309 29.5793 15.6463 29.5773C15.3276 29.5751 15.0099 29.5425 14.6973 29.48L12.1667 27.6915L8.56535 25.1487C7.76118 24.5784 7.28465 23.6526 7.28786 22.6667C7.28807 22.035 7.48355 21.4188 7.84752 20.9025C8.46854 20.0087 9.52689 19.5238 10.6093 19.6372L14.2958 22.253C14.5072 22.4076 14.7956 22.4027 15.0015 22.2409L16.7292 23.4697C16.8862 23.5793 17.0856 23.6086 17.2675 23.5488C17.4495 23.489 17.5926 23.347 17.6538 23.1655L18.7975 19.917C19.2273 18.6927 20.3834 17.8732 21.681 17.873C22.2992 18.6767 22.4728 19.7369 22.1433 20.6957Z"
                  fill="#FFE0B2"/>
            <path id="Shape_22"
                  d="M10.439 72.9994C8.94129 72.9987 7.52669 72.3109 6.60107 71.1335C5.67545 69.9561 5.34112 68.4191 5.69401 66.9636L8.5483 54.6096C8.64793 54.1881 8.63956 53.7482 8.52396 53.3309L5.09176 41.2445C3.52108 40.811 2.43319 39.3821 2.43335 37.7527V20.6829C2.43335 17.3232 5.15694 14.5996 8.51666 14.5996C11.8764 14.5996 14.6 17.3232 14.6 20.6829V21.0966C14.6 21.7685 14.0553 22.3133 13.3833 22.3133C12.7114 22.3133 12.1667 21.7685 12.1667 21.0966V20.6829C12.1667 19.3789 11.471 18.1739 10.3417 17.5219C9.21235 16.8699 7.82098 16.8699 6.69167 17.5219C5.56236 18.1739 4.86668 19.3789 4.86668 20.6829V37.7527C4.86735 38.4042 5.39533 38.9322 6.04684 38.9329C6.59085 38.9329 7.06875 39.294 7.21727 39.8174L10.8673 52.6775C11.0928 53.4899 11.1096 54.3462 10.9159 55.1668L8.0592 67.5305C7.84751 68.3749 8.10236 69.268 8.72775 69.8735C9.35314 70.479 10.254 70.7049 11.0911 70.466C11.9282 70.2272 12.5742 69.5599 12.7859 68.7156C12.8054 68.628 15.3105 57.6196 16.0953 54.4453C16.1955 54.0375 16.1876 53.6105 16.0721 53.2067L12.2129 39.6178C12.1822 39.5098 12.1667 39.398 12.1667 39.2857V28.5547C12.1667 27.8828 12.7114 27.3381 13.3833 27.3381C14.0553 27.3381 14.6 27.8828 14.6 28.5547V39.1166L18.4106 52.5315C18.6428 53.3429 18.6599 54.2007 18.4604 55.0208C17.6781 58.1841 15.1755 69.1682 15.1536 69.2789C14.6286 71.4582 12.6807 72.9955 10.439 72.9994Z"
                  fill="black"/>
            <path id="Shape_23"
                  d="M18.0761 32.0139C16.8388 32.0122 15.6321 31.6299 14.6195 30.9189L14.5903 30.8982L7.86464 26.135C6.62213 25.2563 5.94278 23.7815 6.08249 22.2661C6.2222 20.7507 7.15975 19.4249 8.54197 18.7882C9.92419 18.1515 11.5411 18.3006 12.7836 19.1793L16.773 22.0056L17.6466 19.5127C18.416 17.2801 20.8495 16.094 23.082 16.8634C25.3146 17.6328 26.5007 20.0663 25.7313 22.2988L23.8467 27.8833C23.2408 29.7018 21.8049 31.1228 19.9802 31.7097C19.3654 31.9107 18.7228 32.0134 18.0761 32.0139ZM15.9737 28.8968L15.9956 28.9126C16.9336 29.5722 18.1277 29.7511 19.2179 29.3953C20.3081 29.0395 21.1667 28.1906 21.5351 27.1046L23.4245 21.5202C23.6393 20.8979 23.5057 20.2084 23.0742 19.7113C22.6427 19.2142 21.9788 18.9851 21.3326 19.1103C20.6863 19.2355 20.156 19.6959 19.9412 20.3181L18.7988 23.5727C18.6092 24.1132 18.177 24.5333 17.6313 24.7074C17.0856 24.8815 16.4899 24.7893 16.0224 24.4584L11.4611 21.2257C11.0647 20.9214 10.5623 20.7899 10.0677 20.8609C9.57301 20.9319 9.12791 21.1994 8.8331 21.6029C8.55256 21.9986 8.44108 22.4896 8.52326 22.9677C8.60544 23.4457 8.87453 23.8713 9.2711 24.1506L15.9737 28.8968Z"
                  fill="black"/>
            <path id="Shape_24"
                  d="M28.0646 27.9832C28.0062 27.9832 27.9429 27.9832 27.887 27.9832C27.215 27.9768 26.6755 27.4269 26.6819 26.755C26.6882 26.083 27.2381 25.5435 27.9101 25.5499H27.9222C29.5797 25.6243 31.0776 24.5679 31.5637 22.9815C31.5804 22.9261 31.6011 22.872 31.6258 22.8197L33.9861 15.1073C34.2794 14.1396 33.7357 13.1168 32.7694 12.8187C32.3059 12.6729 31.8032 12.7198 31.3746 12.9486C30.9459 13.1775 30.6274 13.5691 30.4906 14.0354C30.4906 14.0573 30.4395 14.1777 30.4322 14.2009L28.8347 19.4666C28.6624 20.023 28.2376 20.4654 27.6886 20.6601C27.1477 20.8511 26.5482 20.7719 26.0753 20.4472L23.204 18.5906L23.2393 18.6052L23.2016 18.5894C22.6011 18.3147 22.3293 17.6111 22.5892 17.004C22.8492 16.397 23.5459 16.1081 24.1591 16.3531C24.3154 16.414 24.4628 16.4959 24.5971 16.5965L26.7445 17.9822L28.1388 13.4149C28.1449 13.3918 28.1899 13.2713 28.1972 13.2494C28.8938 11.0332 31.2512 9.79732 33.4702 10.4852C35.7252 11.1753 36.9972 13.5593 36.3148 15.8166L33.9046 23.6933C33.8853 23.7531 33.8621 23.8116 33.8352 23.8685C32.9887 26.3323 30.6698 27.9857 28.0646 27.9832ZM27.3966 18.4117L27.4149 18.4239L27.3966 18.4117Z"
                  fill="black"/>
            <g id="hammer">
                <path id="Shape_25"
                      d="M23.8224 11.6074L21.6203 12.6172L15.245 15.5616C15.0609 15.6425 14.849 15.6287 14.677 15.5246C14.5051 15.4204 14.3947 15.239 14.3811 15.0384L14.1256 9.79458C14.1143 9.66907 14.1489 9.54371 14.223 9.44175L14.2351 9.42958C14.2924 9.33669 14.3776 9.26429 14.4785 9.22275L21.2796 6.08376C21.5889 5.94854 21.9497 6.08316 22.0948 6.38793L24.1266 10.8044C24.2637 11.1102 24.1277 11.4692 23.8224 11.6074Z"
                      fill="#545C60"/>
                <path id="Shape_26"
                      d="M21.6203 12.6164L15.245 15.5607C15.0609 15.6417 14.849 15.6279 14.677 15.5237C14.5051 15.4196 14.3947 15.2381 14.3811 15.0376L14.1256 9.79374C14.1143 9.66823 14.1489 9.54287 14.223 9.44091L14.2351 9.42874L18.8463 7.29958C19.1556 7.16436 19.5164 7.29898 19.6615 7.60375L21.6933 12.0202C21.7808 12.2172 21.7528 12.4464 21.6203 12.6164Z"
                      fill="#7F8E94"/>
                <path id="Shape_27"
                      d="M14.9928 16.8297C14.0195 16.8309 13.2165 16.0681 13.1678 15.0959L12.9026 9.8643C12.8622 9.11829 13.2833 8.42381 13.9635 8.11474L20.7768 4.98183C21.2165 4.77933 21.7185 4.75979 22.1726 4.92749C22.6267 5.0952 22.9955 5.43642 23.198 5.87608L25.231 10.2999C25.6498 11.2154 25.248 12.2972 24.3331 12.7174L15.7556 16.6691C15.5159 16.7769 15.2557 16.8317 14.9928 16.8297ZM15.3578 10.1502L15.5561 14.0764L22.7661 10.761L21.2404 7.44436L15.3578 10.1502Z"
                      fill="black"/>
                <path id="Shape_28"
                      d="M25.5498 29.0389C24.1277 29.036 22.8351 28.2122 22.232 26.9243L22.0398 26.5155C21.7535 25.9074 22.0144 25.1824 22.6225 24.8961C23.2307 24.6099 23.9557 24.8708 24.2419 25.4789L24.4366 25.8926C24.7306 26.5045 25.459 26.7701 26.0779 26.4912C26.681 26.2003 26.9389 25.4792 26.657 24.8718L21.5713 13.8306L19.3631 14.8465L20.7915 17.9648C21.0587 18.5732 20.7885 19.2835 20.1844 19.5603C19.5803 19.8371 18.8658 19.578 18.5796 18.9783L16.6451 14.7553C16.3655 14.1451 16.6328 13.4238 17.2425 13.1432L21.6589 11.1114C22.2694 10.8309 22.9916 11.0984 23.2722 11.7087L28.8689 23.8632C29.7071 25.6969 28.9083 27.8634 27.0804 28.714C26.5983 28.9275 26.0771 29.0382 25.5498 29.0389Z"
                      fill="black"/>
            </g>
            <path id="Shape_29"
                  d="M8.51664 17.0333C3.81303 17.0333 0 13.2202 0 8.51664C0 3.81303 3.81303 0 8.51664 0C13.2202 0 17.0333 3.81303 17.0333 8.51664C17.0362 9.19684 16.4965 9.75544 15.8166 9.77589C15.4985 9.7854 15.19 9.66615 14.961 9.44514C14.7319 9.22413 14.6018 8.92007 14.6 8.60181V8.51664C14.6 5.15692 11.8764 2.43333 8.51664 2.43333C5.15692 2.43333 2.43333 5.15692 2.43333 8.51664C2.43333 11.8764 5.15692 14.6 8.51664 14.6C10.3985 14.6091 12.1759 13.7359 13.3188 12.2408C13.7319 11.7208 14.4858 11.6282 15.0125 12.0327C15.5392 12.4372 15.6442 13.1894 15.2484 13.7227C13.6469 15.8198 11.1552 17.0451 8.51664 17.0333Z"
                  fill="black"/>
            <path id="Shape_30"
                  d="M64.4833 49.8826H40.15C39.4781 49.8826 38.9333 49.3379 38.9333 48.666V43.7993C38.9333 36.4079 44.9253 30.416 52.3166 30.416C59.708 30.416 65.6999 36.4079 65.6999 43.7993V48.666C65.6999 49.3379 65.1552 49.8826 64.4833 49.8826ZM41.3667 47.4493H63.2666V43.7993C63.2666 37.7518 58.3641 32.8493 52.3166 32.8493C46.2691 32.8493 41.3667 37.7518 41.3667 43.7993V47.4493Z"
                  fill="black"/>
            <path id="Shape_31"
                  d="M53.8983 32.85H50.735C49.0268 32.8455 47.4447 31.9497 46.5619 30.4873L44.4935 27.0429C44.0397 26.2865 43.8 25.4211 43.8 24.539V16.1233C43.8106 13.7091 44.7904 11.4003 46.5193 9.71518C48.11 8.12031 50.285 7.24739 52.5369 7.30011C57.1515 7.42589 60.8285 11.2004 60.8333 15.8167V24.539C60.8336 25.4215 60.5938 26.2874 60.1398 27.0441L58.0715 30.4873C57.1892 31.9503 55.6068 32.8462 53.8983 32.85ZM52.3325 9.73343C50.7877 9.74501 49.3095 10.3643 48.2178 11.4574C46.9578 12.684 46.2429 14.365 46.2334 16.1233V24.539C46.2338 24.98 46.3536 25.4126 46.5801 25.791L48.6485 29.2353C49.0903 29.9661 49.881 30.4138 50.735 30.4167H53.8983C54.7528 30.4143 55.5441 29.9665 55.9861 29.2353L58.0545 25.791C58.2809 25.4126 58.4004 24.9799 58.4 24.539V15.8167C58.3947 12.5204 55.7699 9.82554 52.4749 9.73343H52.3325Z"
                  fill="black"/>
            <path id="Shape_32"
                  d="M45.0166 24.333H43.7999C41.7841 24.333 40.1499 22.6989 40.1499 20.6831V19.4664C40.1499 17.4506 41.7841 15.8164 43.7999 15.8164H45.0166C45.6885 15.8164 46.2332 16.3611 46.2332 17.0331V23.1164C46.2332 23.7883 45.6885 24.333 45.0166 24.333ZM43.7999 18.2497C43.1279 18.2497 42.5832 18.7945 42.5832 19.4664V20.6831C42.5832 21.355 43.1279 21.8997 43.7999 21.8997V18.2497Z"
                  fill="black"/>
            <path id="Shape_33"
                  d="M60.8332 24.333H59.6166C58.9446 24.333 58.3999 23.7883 58.3999 23.1164V17.0331C58.3999 16.3611 58.9446 15.8164 59.6166 15.8164H60.8332C62.8491 15.8164 64.4832 17.4506 64.4832 19.4664V20.6831C64.4832 22.6989 62.8491 24.333 60.8332 24.333ZM60.8332 18.2497V21.8997C61.5052 21.8997 62.0499 21.355 62.0499 20.6831V19.4664C62.0499 18.7945 61.5052 18.2497 60.8332 18.2497Z"
                  fill="black"/>
            <path id="Shape_34"
                  d="M52.3164 24.333C51.7129 24.3341 51.1998 23.8927 51.1107 23.2959C51.0216 22.699 51.3836 22.127 51.9611 21.952C51.8133 21.2862 51.5729 20.6445 51.2469 20.0455C51.0253 19.6621 51.0293 19.1887 51.2576 18.8092C51.4858 18.4298 51.9022 18.2043 52.3447 18.2205C52.7872 18.2368 53.1859 18.4921 53.3858 18.8872C53.8725 19.7851 54.9176 22.0238 54.1061 23.3889C53.7285 24.0087 53.0412 24.3713 52.3164 24.333Z"
                  fill="black"/>
            <path id="Shape_35"
                  d="M53.5332 27.9831H52.3165C51.6446 27.9831 51.0999 27.4384 51.0999 26.7665C51.0999 26.0945 51.6446 25.5498 52.3165 25.5498H53.5332C54.2051 25.5498 54.7498 26.0945 54.7498 26.7665C54.7498 27.4384 54.2051 27.9831 53.5332 27.9831Z"
                  fill="black"/>
            <path id="Shape_36"
                  d="M47.4499 45.0173H46.2333C45.5613 45.0173 45.0166 44.4726 45.0166 43.8006C45.0166 43.1287 45.5613 42.584 46.2333 42.584H47.4499C48.1219 42.584 48.6666 43.1287 48.6666 43.8006C48.6666 44.4726 48.1219 45.0173 47.4499 45.0173Z"
                  fill="black"/>
            <path id="Shape_37"
                  d="M58.3996 45.0173H57.183C56.511 45.0173 55.9663 44.4726 55.9663 43.8006C55.9663 43.1287 56.511 42.584 57.183 42.584H58.3996C59.0716 42.584 59.6163 43.1287 59.6163 43.8006C59.6163 44.4726 59.0716 45.0173 58.3996 45.0173Z"
                  fill="black"/>
            <path id="Shape_38"
                  d="M66.9165 57.1835H37.7166C35.7008 57.1835 34.0667 55.5493 34.0667 53.5335V51.1002C34.0667 49.0844 35.7008 47.4502 37.7166 47.4502H66.9165C68.9324 47.4502 70.5665 49.0844 70.5665 51.1002V53.5335C70.5665 55.5493 68.9324 57.1835 66.9165 57.1835ZM37.7166 49.8835C37.0447 49.8835 36.5 50.4282 36.5 51.1002V53.5335C36.5 54.2055 37.0447 54.7502 37.7166 54.7502H66.9165C67.5885 54.7502 68.1332 54.2055 68.1332 53.5335V51.1002C68.1332 50.4282 67.5885 49.8835 66.9165 49.8835H37.7166Z"
                  fill="black"/>
            <path id="Shape_39"
                  d="M42.5832 72.9999H40.1499C38.806 72.9999 37.7166 71.9105 37.7166 70.5666V55.9667C37.7166 55.2947 38.2613 54.75 38.9332 54.75H43.7999C44.4718 54.75 45.0165 55.2947 45.0165 55.9667V70.5666C45.0165 71.9105 43.9271 72.9999 42.5832 72.9999ZM40.1499 57.1833V70.5666H42.5832V57.1833H40.1499Z"
                  fill="black"/>
            <path id="Shape_40"
                  d="M64.4831 72.9999H62.0498C60.7059 72.9999 59.6165 71.9105 59.6165 70.5666V55.9667C59.6165 55.2947 60.1612 54.75 60.8331 54.75H65.6998C66.3717 54.75 66.9164 55.2947 66.9164 55.9667V70.5666C66.9164 71.9105 65.827 72.9999 64.4831 72.9999ZM62.0498 57.1833V70.5666H64.4831V57.1833H62.0498Z"
                  fill="black"/>
            <path id="Shape_41"
                  d="M49.8832 41.3668C49.6433 41.3666 49.4087 41.2955 49.2091 41.1624L45.5592 38.7291C45.1975 38.4878 44.992 38.072 45.0201 37.6382C45.0482 37.2044 45.3056 36.8185 45.6954 36.6259C46.0851 36.4333 46.548 36.4633 46.9096 36.7046L50.5596 39.1379C51.0059 39.4355 51.2047 39.9902 51.0489 40.5035C50.8931 41.0168 50.4196 41.3675 49.8832 41.3668Z"
                  fill="black"/>
            <path id="Shape_42"
                  d="M54.7497 41.366C54.2133 41.3666 53.7398 41.0159 53.584 40.5026C53.4282 39.9893 53.627 39.4346 54.0733 39.137L57.7233 36.7037C58.2823 36.3308 59.0378 36.4817 59.4108 37.0407C59.7837 37.5998 59.6328 38.3553 59.0738 38.7282L55.4238 41.1616C55.2242 41.2947 54.9897 41.3658 54.7497 41.366Z"
                  fill="black"/>
            <path id="Oval"
                  d="M36.4999 31.6335C37.1718 31.6335 37.7165 31.0888 37.7165 30.4169C37.7165 29.7449 37.1718 29.2002 36.4999 29.2002C35.8279 29.2002 35.2832 29.7449 35.2832 30.4169C35.2832 31.0888 35.8279 31.6335 36.4999 31.6335Z"
                  fill="black"/>
            <path id="Oval_2"
                  d="M32.8497 34.0661C33.5217 34.0661 34.0664 33.5214 34.0664 32.8495C34.0664 32.1775 33.5217 31.6328 32.8497 31.6328C32.1778 31.6328 31.6331 32.1775 31.6331 32.8495C31.6331 33.5214 32.1778 34.0661 32.8497 34.0661Z"
                  fill="black"/>
            <path id="Oval_3"
                  d="M36.4999 37.7165C37.1718 37.7165 37.7165 37.1718 37.7165 36.4999C37.7165 35.8279 37.1718 35.2832 36.4999 35.2832C35.8279 35.2832 35.2832 35.8279 35.2832 36.4999C35.2832 37.1718 35.8279 37.7165 36.4999 37.7165Z"
                  fill="black"/>
            <path id="Oval_4"
                  d="M29.1998 62.0505C29.8718 62.0505 30.4165 61.5058 30.4165 60.8339C30.4165 60.1619 29.8718 59.6172 29.1998 59.6172C28.5279 59.6172 27.9832 60.1619 27.9832 60.8339C27.9832 61.5058 28.5279 62.0505 29.1998 62.0505Z"
                  fill="black"/>
            <path id="Oval_5"
                  d="M32.8497 72.9997C33.5217 72.9997 34.0664 72.455 34.0664 71.7831C34.0664 71.1111 33.5217 70.5664 32.8497 70.5664C32.1778 70.5664 31.6331 71.1111 31.6331 71.7831C31.6331 72.455 32.1778 72.9997 32.8497 72.9997Z"
                  fill="black"/>
            <path id="Oval_6"
                  d="M18.2499 72.9997C18.9218 72.9997 19.4665 72.455 19.4665 71.7831C19.4665 71.1111 18.9218 70.5664 18.2499 70.5664C17.5779 70.5664 17.0332 71.1111 17.0332 71.7831C17.0332 72.455 17.5779 72.9997 18.2499 72.9997Z"
                  fill="black"/>
            <path id="Shape_43" d="M37.7165 18.2496L27.9832 14.5996L37.7165 18.2496Z" fill="black"/>
            <path id="Shape_44"
                  d="M37.7166 19.4664C37.5709 19.4659 37.4264 19.44 37.2896 19.3898L27.5563 15.7398C27.149 15.5877 26.8538 15.2298 26.7819 14.801C26.71 14.3722 26.8723 13.9376 27.2077 13.661C27.5431 13.3843 28.0007 13.3076 28.4079 13.4598L38.1412 17.1098C38.6927 17.3154 39.018 17.8863 38.9136 18.4655C38.8092 19.0448 38.3052 19.4662 37.7166 19.4664Z"
                  fill="black"/>
            <path id="Shape_45"
                  d="M27.375 72.9994H24.5949C23.5858 72.9992 22.6425 72.4986 22.0767 71.663C21.511 70.8275 21.3965 69.7657 21.771 68.8287L22.6118 66.7263C23.179 65.3163 24.6971 64.5383 26.1729 64.9013L28.1123 65.388C29.4672 65.7265 30.4175 66.9442 30.4166 68.3408V69.9577C30.4166 71.6376 29.0549 72.9994 27.375 72.9994ZM25.4381 67.2482C25.1891 67.249 24.9652 67.3998 24.8711 67.6303L24.0304 69.7314C23.9553 69.9189 23.9781 70.1313 24.0912 70.2986C24.2043 70.4658 24.393 70.566 24.5949 70.5661H27.375C27.711 70.5661 27.9833 70.2937 27.9833 69.9577V68.3408C27.9832 68.0616 27.7931 67.8183 27.5222 67.7507L25.5828 67.264C25.5355 67.2522 25.4868 67.2469 25.4381 67.2482Z"
                  fill="black"/>
            <path id="Shape_46"
                  d="M53.8785 73H51.2213C49.2054 73 47.5713 71.3658 47.5713 69.35V67.89C47.5715 66.2155 48.7111 64.7559 50.3356 64.3495L52.2189 63.8774C53.9906 63.4408 55.8134 64.3746 56.4943 66.0674L57.2632 67.9922C57.7137 69.1163 57.5774 70.3906 56.8992 71.3939C56.2211 72.3973 55.0895 72.9989 53.8785 73ZM53.1059 66.2086C53.0074 66.2087 52.9094 66.221 52.8139 66.2451L50.9293 66.7159C50.388 66.8515 50.0083 67.338 50.0083 67.8961V69.35C50.0083 70.0219 50.553 70.5667 51.2249 70.5667H53.8785C54.282 70.5664 54.6591 70.3661 54.8853 70.032C55.1114 69.6978 55.1572 69.2733 55.0075 68.8986L54.2374 66.9726C54.0521 66.5104 53.6039 66.2077 53.1059 66.2086Z"
                  fill="black"/>
        </g>
    </g>
</svg>
