<svg id="Capa_1" enable-background="new 0 0 511.976 511.976" height="512" viewBox="0 0 511.976 511.976" width="512" xmlns="http://www.w3.org/2000/svg"><g><g><path d="m260.153 410.916 10.886-3.546 115.918-111.053c5.142-4.926 11.15-8.439 17.523-10.515 15.086-4.914 32.232-1.825 44.802 9.385 19.923 17.744 20.588 48.659 1.453 67.236l-111.477 108.261" fill="#ffcbbe"/><path d="m80.321 485.893h191.219c23.477 0 46.642-5.373 67.721-15.709l139.517-68.407c23.948-11.742 32.893-41.345 19.453-64.383-12.073-20.697-38.029-28.636-59.615-18.233l-144.612 69.692-213.683-34.696" fill="#ffddce"/><path d="m161.84 399.226h92.911 2.905c9.704 0 18.512-3.81 25.031-10.006 9.809-8.07 16.065-20.301 16.065-33.995 0-24.301-19.7-44.001-44.001-44.001h-58.396c-9.944-20.287-30.785-34.26-54.903-34.26-33.762 0-61.131 27.369-61.131 61.131v102.422" fill="#ffddce"/><path d="m165.381 281.824c-21.86 9.32-37.17 31-37.17 56.27v110.403l-47.89-7.983v-102.42c0-33.77 27.37-61.14 61.13-61.14 8.5 0 16.58 1.74 23.93 4.87z" fill="#ffcbbe"/><path d="m478.778 402.277-139.52 68.41c-21.08 10.34-44.24 15.71-67.72 15.71h-191.22v-53.19h191.22c23.48 0 46.64-5.38 67.72-15.71l139.52-68.41c7.14-3.5 12.95-8.59 17.23-14.62.79 1.1 1.53 2.24 2.22 3.43 13.44 23.04 4.5 52.64-19.45 64.38z" fill="#ffcbbe"/><path d="m7.5 338.094h72.821v148.299h-72.821z" fill="#bed8fb"/><path d="m7.5 433.2h72.821v53.193h-72.821z" fill="#9dc6fb"/><g><path d="m383.138 71.6c4.336-8.738.765-19.329-7.973-23.665l-27.343-13.544c-8.738-4.336-19.329-.765-23.665 7.973l-54.107 109.169-26.349-44.068c-5.007-8.376-15.839-11.101-24.215-6.094l-26.188 15.651c-8.363 5.007-11.101 15.839-6.094 24.215l51.92 86.847c3.315 5.544 9.396 8.846 15.839 8.591l36.806-1.45c6.456-.255 12.255-4.013 15.114-9.799z" fill="#95d6a4"/><g fill="#78c2a4"><path d="m281.056 169.941 63.232-127.577c1.41-2.842 3.488-5.126 5.943-6.78l-2.408-1.193c-8.738-4.336-19.329-.765-23.665 7.973l-54.108 109.169z"/><path d="m259.254 228.085-51.92-86.847c-5.007-8.376-2.268-19.208 6.094-24.215l25.136-15.023c-5.515-3.801-12.95-4.292-19.079-.628l-26.188 15.651c-8.362 5.007-11.101 15.839-6.094 24.215l51.92 86.847c3.315 5.544 9.396 8.846 15.839 8.591l14.916-.588c-4.381-1.167-8.227-3.995-10.624-8.003z"/></g></g><g fill="#d6f6b2"><g><path d="m156.519 200.912-1.326-2.297c-4.677-8.101-14.828-11.197-23.23-7.085l-25.844 12.648c-9.257 4.53-12.741 15.953-7.588 24.879l3.295 5.707c5.153 8.925 16.788 11.62 25.339 5.868l23.875-16.058c7.761-5.222 10.156-15.561 5.479-23.662z"/><path d="m133.041 135.944v-2.652c0-9.354-7.243-17.111-16.575-17.751l-28.706-1.969c-10.282-.705-19.011 7.445-19.011 17.751v6.59c0 10.306 8.729 18.457 19.011 17.751l28.706-1.969c9.332-.64 16.575-8.396 16.575-17.751z"/><path d="m155.192 70.621 1.326-2.297c4.677-8.101 2.283-18.44-5.479-23.661l-23.875-16.058c-8.552-5.752-20.186-3.058-25.339 5.868l-3.295 5.707c-5.153 8.925-1.669 20.348 7.588 24.879l25.844 12.648c8.402 4.111 18.553 1.015 23.23-7.086z"/></g><g><path d="m414.069 200.912 1.326-2.297c4.677-8.101 14.828-11.197 23.23-7.085l25.844 12.648c9.257 4.53 12.741 15.953 7.588 24.879l-3.295 5.707c-5.153 8.925-16.788 11.62-25.339 5.868l-23.875-16.058c-7.762-5.222-10.156-15.561-5.479-23.662z"/><path d="m437.547 135.944v-2.652c0-9.354 7.243-17.111 16.575-17.751l28.706-1.969c10.282-.705 19.011 7.445 19.011 17.751v6.59c0 10.306-8.729 18.457-19.011 17.751l-28.706-1.969c-9.332-.64-16.575-8.396-16.575-17.751z"/><path d="m415.395 70.621-1.326-2.297c-4.677-8.101-2.283-18.44 5.479-23.661l23.875-16.058c8.552-5.752 20.186-3.058 25.339 5.868l3.295 5.707c5.153 8.925 1.669 20.348-7.588 24.879l-25.844 12.648c-8.401 4.111-18.553 1.015-23.23-7.086z"/></g></g></g><g><path d="m504.71 334.119c-7.954-13.648-21.589-22.978-36.892-25.698-3.078-7.165-7.686-13.617-13.547-18.834-14.141-12.6-34.11-16.783-52.117-10.916-7.657 2.495-14.516 6.607-20.387 12.227l-76.261 73.062c.489-2.86.745-5.78.745-8.736 0-28.398-23.104-51.501-51.501-51.501h-53.897c-12.254-21.249-34.604-34.259-59.401-34.259-35.309 0-64.465 26.804-68.214 61.131h-65.738c-4.143 0-7.5 3.358-7.5 7.5v148.299c0 4.142 3.357 7.5 7.5 7.5h72.772c.016 0 .032.002.048.002h52.729c4.143 0 7.5-3.358 7.5-7.5s-3.357-7.5-7.5-7.5h-45.228v-140.802c0-.004-.001-.009-.001-.013.007-29.566 24.064-53.618 53.632-53.618 20.624 0 39.081 11.519 48.169 30.06 1.26 2.57 3.872 4.199 6.734 4.199h58.396c20.127 0 36.501 16.375 36.501 36.501 0 10.954-4.858 21.233-13.33 28.204-.138.114-.271.232-.401.355-5.389 5.122-12.442 7.942-19.864 7.942h-95.815c-4.143 0-7.5 3.358-7.5 7.5s3.357 7.5 7.5 7.5h95.815c10.167 0 19.872-3.49 27.684-9.87h8.659c1.127 0 2.24-.254 3.256-.744l144.621-69.69c5.267-2.539 10.869-3.826 16.653-3.826 13.633 0 26.362 7.31 33.222 19.079 5.439 9.326 6.716 20.152 3.594 30.484-3.121 10.329-10.177 18.633-19.867 23.383l-139.519 68.411c-19.953 9.777-42.229 14.945-64.42 14.945h-108.51c-4.143 0-7.5 3.358-7.5 7.5s3.357 7.5 7.5 7.5h108.51c24.466 0 49.024-5.697 71.021-16.476l139.52-68.41c13.277-6.508 23.346-18.359 27.623-32.512 4.278-14.157 2.458-29.604-4.994-42.379zm-489.71 11.475h57.821v133.299h-57.821zm420.364-32.685-110.437 53.218 67.214-64.395c4.229-4.046 9.16-7.007 14.659-8.798 12.954-4.221 27.319-1.211 37.495 7.855 2.46 2.19 4.611 4.683 6.422 7.398-5.289.784-10.432 2.35-15.353 4.722z"/><path d="m232.687 231.941c4.568 7.622 12.761 12.25 21.555 12.249.337 0 .676-.007 1.014-.021l36.805-1.449c9.208-.357 17.463-5.711 21.54-13.964l50.83-102.54c1.84-3.711.322-8.211-3.389-10.051-3.71-1.84-8.211-.322-10.051 3.389l-50.835 102.549c-1.644 3.328-4.968 5.484-8.681 5.628l-36.817 1.45c-3.7.155-7.185-1.748-9.1-4.944l-51.919-86.848c-2.872-4.808-1.299-11.054 3.508-13.926l26.195-15.653c2.33-1.394 5.06-1.798 7.685-1.138 2.627.661 4.842 2.309 6.236 4.641l26.35 44.07c1.409 2.355 4.014 3.762 6.732 3.646 2.742-.108 5.206-1.705 6.425-4.164l54.111-109.171c1.204-2.431 3.282-4.247 5.851-5.112 2.568-.864 5.322-.677 7.762.534l27.338 13.535c5.017 2.494 7.075 8.6 4.588 13.614l-12.1 24.42c-1.839 3.711-.32 8.211 3.391 10.05 3.715 1.84 8.211.321 10.051-3.391l12.098-24.417c6.158-12.415 1.066-27.536-11.361-33.713l-27.341-13.536c-6.022-2.99-12.846-3.456-19.215-1.31-6.367 2.145-11.518 6.644-14.501 12.667l-48.007 96.855-19.296-32.273c-3.451-5.772-8.939-9.854-15.453-11.491-6.517-1.637-13.278-.638-19.041 2.812l-26.19 15.649c-11.906 7.112-15.805 22.586-8.69 34.497z"/><path d="m161.688 194.865c-6.62-11.468-21.125-15.892-33.022-10.072l-25.845 12.648c-6.272 3.069-11.038 8.661-13.075 15.34-2.036 6.679-1.202 13.978 2.289 20.024l3.295 5.708c3.491 6.047 9.396 10.419 16.199 11.995 1.874.434 3.778.647 5.678.647 4.995 0 9.945-1.477 14.144-4.301l23.875-16.058c10.989-7.391 14.41-22.165 7.789-33.634zm-14.834 23.485-23.875 16.058c-2.394 1.609-5.261 2.136-8.066 1.487-2.81-.651-5.151-2.384-6.593-4.881l-3.295-5.708c-1.441-2.497-1.772-5.391-.932-8.149.842-2.758 2.731-4.976 5.321-6.243l25.845-12.647c1.442-.706 2.979-1.042 4.497-1.042 3.577 0 7.05 1.864 8.941 5.141l1.326 2.297c2.695 4.667 1.302 10.679-3.169 13.687z"/><path d="m69.28 156.4c4.685 4.375 10.902 6.805 17.278 6.805.57 0 1.143-.02 1.714-.059l28.707-1.969c13.212-.906 23.562-11.99 23.562-25.234v-2.652c0-13.244-10.35-24.328-23.562-25.234l-28.707-1.969c-6.957-.479-13.889 1.982-18.993 6.748s-8.03 11.503-8.03 18.486v6.59c0 6.984 2.927 13.723 8.031 18.488zm6.969-25.077c0-2.883 1.16-5.555 3.269-7.523 1.929-1.802 4.392-2.771 7.001-2.771.241 0 .484.008.728.025l28.706 1.969c5.377.369 9.589 4.879 9.589 10.269v2.652c0 5.39-4.212 9.9-9.588 10.269l-28.707 1.969c-2.87.196-5.621-.777-7.729-2.745-2.107-1.968-3.269-4.64-3.269-7.524z"/><path d="m102.82 71.796 25.845 12.647c3.545 1.734 7.32 2.559 11.051 2.559 8.789 0 17.323-4.58 21.972-12.631l1.326-2.297c6.622-11.47 3.2-26.244-7.789-33.634l-23.875-16.059c-5.794-3.897-13.017-5.23-19.822-3.653-6.803 1.575-12.707 5.947-16.198 11.995l-3.295 5.707c-3.491 6.047-4.325 13.346-2.289 20.025 2.036 6.68 6.802 12.271 13.074 15.341zm2.204-27.866 3.295-5.707c1.441-2.497 3.783-4.231 6.592-4.881.785-.182 1.573-.271 2.355-.271 2.018 0 3.987.598 5.712 1.758l23.875 16.059c4.473 3.007 5.864 9.02 3.17 13.687l-1.326 2.297c-2.694 4.667-8.597 6.469-13.438 4.099l-25.845-12.647c-2.59-1.268-4.479-3.485-5.321-6.243-.841-2.759-.51-5.653.931-8.151z"/><path d="m415.362 230.796 23.876 16.058c4.198 2.824 9.147 4.301 14.144 4.301 1.898 0 3.805-.213 5.679-.647 6.803-1.575 12.707-5.947 16.197-11.994l3.296-5.708c3.491-6.047 4.325-13.346 2.289-20.025-2.037-6.679-6.803-12.271-13.075-15.34l-25.845-12.647c-11.897-5.821-26.401-1.397-33.022 10.072l-1.326 2.296c-6.623 11.468-3.202 26.242 7.787 33.634zm5.202-26.133 1.326-2.297c1.892-3.277 5.364-5.141 8.941-5.141 1.518 0 3.055.336 4.497 1.042l25.845 12.647c2.59 1.268 4.479 3.485 5.321 6.243.841 2.758.51 5.652-.932 8.148l-3.296 5.708c-1.441 2.497-3.782 4.23-6.592 4.881-2.808.65-5.673.123-8.066-1.487l-23.876-16.058c-4.47-3.008-5.863-9.019-3.168-13.686z"/><path d="m430.047 133.292v2.652c0 13.244 10.35 24.328 23.562 25.234l28.705 1.969c.572.039 1.144.059 1.714.059 6.377 0 12.595-2.431 17.279-6.805 5.104-4.766 8.031-11.504 8.031-18.487v-6.59c0-6.983-2.927-13.721-8.03-18.486-5.105-4.766-12.021-7.228-18.994-6.748l-28.706 1.969c-13.212.905-23.561 11.989-23.561 25.233zm53.294-12.238c.244-.017.486-.025.729-.025 2.609 0 5.072.97 7.001 2.771 2.108 1.968 3.269 4.64 3.269 7.523v6.59c0 2.884-1.161 5.556-3.269 7.524-2.107 1.968-4.844 2.941-7.729 2.745l-28.705-1.969c-5.377-.369-9.589-4.879-9.589-10.269v-2.652c0-5.39 4.212-9.9 9.589-10.269z"/><path d="m408.9 74.371c4.648 8.052 13.182 12.632 21.972 12.631 3.729 0 7.507-.825 11.051-2.559l25.845-12.648c6.272-3.069 11.038-8.661 13.075-15.34 2.036-6.679 1.202-13.978-2.289-20.025l-3.296-5.707c-3.49-6.047-9.394-10.419-16.196-11.995-6.807-1.576-14.028-.244-19.823 3.653l-23.877 16.059c-10.989 7.392-14.41 22.166-7.788 33.634zm14.833-23.484 23.876-16.058c4.762-3.352 11.868-1.691 14.658 3.395l3.296 5.707c1.441 2.497 1.772 5.391.932 8.149-.842 2.758-2.731 4.976-5.321 6.243l-25.845 12.647c-4.842 2.37-10.745.568-13.438-4.099l-1.326-2.297c-2.696-4.667-1.303-10.679 3.168-13.687z"/></g></g></svg>