<?xml version="1.0" encoding="UTF-8"?>
<svg xmlns="http://www.w3.org/2000/svg" xmlns:xlink="http://www.w3.org/1999/xlink" width="512" height="512"
     viewBox="0 0 58 60" version="1.1"><!-- Generator: Sketch 51.3 (57544) - http://www.bohemiancoding.com/sketch -->
    <title>005 - Stone Mason</title>
    <desc>Created with Sketch.</desc>
    <defs/>
    <g id="Page-1" stroke="none" stroke-width="1" fill="none" fill-rule="evenodd">
        <g id="005---Stone-Mason" fill-rule="nonzero">
            <path d="M13,7 L13,7.07 L11.74,10.67 C10.6091749,12.1425795 8.85667431,13.0040408 7,13 C6.671743,12.9990237 6.34406936,12.9722748 6.02,12.92 C3.13521634,12.4342299 1.0212704,9.93883551 1.01632468,7.01344239 C1.01137896,4.08804928 3.11687533,1.5855214 6,1.09 C6.32986931,1.02940637 6.66461242,0.999279489 7,1 C8.59129894,1 10.1174224,1.63214104 11.2426407,2.75735931 C12.367859,3.88257758 13,5.40870106 13,7 Z"
                  id="Shape" fill="#DFC49C"/>
            <path d="M11,7 L11,7.07 L11.287,10.812 C10.4,11.972 7.53,12.66 6.02,12.92 C3.13521634,12.4342299 1.0212704,9.93883551 1.01632468,7.01344239 C1.01137896,4.08804928 3.11687533,1.5855214 6,1.09 C8.88677893,1.57376651 11.0011619,4.07296715 11,7 Z"
                  id="Shape" fill="#FFE0B2"/>
            <path d="M14.2,44.99 C13.55,47.62 11.48,56.72 11.48,56.72 C11.1519364,58.0559904 9.95567572,58.9964988 8.58,59 C8.3339203,58.9996661 8.08879204,58.9694449 7.85,58.91 C6.24972066,58.5020591 5.27114814,56.8874144 5.65,55.28 L8,45.11 C8.12002325,44.6023501 8.10970325,44.0725903 7.97,43.57 L4.97,33 L5.5,30.77 L5.99,28.69 L11.2,33 L14.17,43.45 C14.3146911,43.9518482 14.3250363,44.4828973 14.2,44.99 Z"
                  id="Shape" fill="#0377BC"/>
            <path d="M11.2,44.99 C10.55,47.62 8.48,56.72 8.48,56.72 C8.28916236,57.5116596 7.77862382,58.1887568 7.07,58.59 C5.908555,57.9294061 5.32831004,56.5768633 5.65,55.28 L8,45.11 C8.12002325,44.6023501 8.10970325,44.0725903 7.97,43.57 L4.97,33 L5.5,30.77 L8.2,33 L11.17,43.45 C11.3146911,43.9518482 11.3250363,44.4828973 11.2,44.99 Z"
                  id="Shape" fill="#02A9F4"/>
            <path d="M11.2,33.0000023 L4.97,33 C4.44727933,33.0007978 3.94573843,32.7935011 3.57611867,32.4238813 C3.20649891,32.0542616 2.99920215,31.5527207 3,31.03 L3,17 C3.00189418,15.9393573 3.42236085,14.9223311 4.17,14.17 C4.67848177,13.669167 5.30950194,13.3105544 6,13.13 C6.32573075,13.0406959 6.66226279,12.9969467 7,13 C9.209139,13 11,14.790861 11,17 L11,32.29 L11.2,33.0000023 Z"
                  id="Shape" fill="#C81E1E"/>
            <path d="M9.2,33.0000023 L4.97,33 C4.44727933,33.0007978 3.94573843,32.7935011 3.57611867,32.4238813 C3.20649891,32.0542616 2.99920215,31.5527207 3,31.03 L3,17 C3.00189418,15.9393573 3.42236085,14.9223311 4.17,14.17 C4.67848177,13.669167 5.30950194,13.3105544 6,13.13 C7.76664204,13.583221 9.00147026,15.1761494 9,17 L9,32.29 L9.2,33.0000023 Z"
                  id="Shape" fill="#F44335"/>
            <path d="M28.89,12.71 L27.83,16.17 L26.91,19.18 L26.9,19.18 C26.3724051,20.9049903 24.7528303,22.0612437 22.95,22 L22.94,22 L22.39,20.78 L19.66,14.77 L19.48,14.37 C19.5263392,14.3872596 19.5700828,14.4108139 19.61,14.44 L20.48,15.01 L21.99,15.98 C22.120467,16.0684814 22.2853801,16.0892356 22.4337023,16.0358396 C22.5820244,15.9824436 22.6958677,15.8613371 22.74,15.71 L24.08,11.32 L24.11,11.24 C24.4262199,10.1897244 25.393153,9.4706188 26.49,9.47 L26.5,9.47 C26.7472875,9.47225559 26.9930283,9.50928504 27.23,9.58 C28.5520543,9.9867372 29.2948859,11.3873776 28.89,12.71 Z"
                  id="Shape" fill="#DFC49C"/>
            <path d="M26.89,11.71 L25.83,15.17 L24.91,18.18 L24.9,18.18 C24.5315017,19.4006838 23.5969504,20.3687449 22.39,20.78 C21.9268213,20.9380534 21.4392423,21.0125446 20.95,21 L20.94,21 L17.48,13.37 C17.5263392,13.3872596 17.5700828,13.4108139 17.61,13.44 L19.66,14.77 L19.99,14.98 C20.1338998,15.0836043 20.3245361,15.0952759 20.48,15.01 L21.99,15.98 C22.120467,16.0684814 22.2853801,16.0892356 22.4337023,16.0358396 C22.5820244,15.9824436 22.6958677,15.8613371 22.74,15.71 L24.08,11.32 L24.11,11.24 C24.4262199,10.1897244 25.393153,9.4706188 26.49,9.47 L26.5,9.47 C26.9785983,10.1122565 27.1233732,10.9437842 26.89,11.71 Z"
                  id="Shape" fill="#FFE0B2"/>
            <path d="M16.18,15.31 L14.59,11.84 L15.74,9.021 L18.22,10.17 L22.82,20.16 C23.2812391,21.1652632 22.8431869,22.3542621 21.84,22.82 C21.5755577,22.9377421 21.2894685,22.999047 21,23 C20.218858,23.0019329 19.5080783,22.5489085 19.18,21.84 L19.02,21.5 L16.18,15.31 Z"
                  id="Shape" fill="#FF5722"/>
            <path d="M53,36 L53,40 L33,40 L33,36 C33.0018776,31.0655121 36.602848,26.8700419 41.48,26.12 L41.52,26.12 C42.009213,26.0395235 42.5042123,25.9993884 43,26 C45.6521649,26 48.195704,27.0535684 50.0710678,28.9289322 C51.9464316,30.804296 53,33.3478351 53,36 Z"
                  id="Shape" fill="#DFC49C"/>
            <path d="M50,36 L50,40 L33,40 L33,36 C33.0018776,31.0655121 36.602848,26.8700419 41.48,26.12 L41.52,26.12 C46.397152,26.8700419 49.9981224,31.0655121 50,36 Z"
                  id="Shape" fill="#FFE0B2"/>
            <path d="M49,13 L49,20.17 C48.9995767,20.7129124 48.8508948,21.245401 48.57,21.71 L46.87,24.54 C46.3327844,25.4479076 45.3549337,26.0034181 44.3,26 L41.7,26 C40.6450663,26.0034181 39.6672156,25.4479076 39.13,24.54 L37.43,21.71 C37.1491052,21.245401 37.0004233,20.7129124 37,20.17 L37,13.25 C36.9955301,10.2573176 39.1056935,7.67822901 42.04,7.09 C42.4089741,7.01954123 42.7845094,6.98936429 43.16,7 C46.4080963,7.0934847 48.9943198,9.7505636 49,13 Z"
                  id="Shape" fill="#DFC49C"/>
            <path d="M47,13 L47,20.17 C46.9995767,20.7129124 46.8508948,21.245401 46.57,21.71 L44.87,24.54 C44.3327844,25.4479076 43.3549337,26.0034181 42.3,26 L41.7,26 C40.6450663,26.0034181 39.6672156,25.4479076 39.13,24.54 L37.43,21.71 C37.1491052,21.245401 37.0004233,20.7129124 37,20.17 L37,13.25 C36.9955301,10.2573176 39.1056935,7.67822901 42.04,7.09 C43.2553506,7.29746971 44.3747593,7.88166113 45.24,8.76 C46.3708021,9.88061008 47.0048139,11.4080021 47,13 Z"
                  id="Shape" fill="#FFE0B2"/>
            <path d="M36,14 L37,14 L37,19 L36,19 C34.8954305,19 34,18.1045695 34,17 L34,16 C34,14.8954305 34.8954305,14 36,14 Z"
                  id="Shape" fill="#DFC49C"/>
            <path d="M51,14 L52,14 L52,19 L51,19 C49.8954305,19 49,18.1045695 49,17 L49,16 C49,14.8954305 49.8954305,14 51,14 Z"
                  id="Shape" fill="#DFC49C"
                  transform="translate(50.500000, 16.500000) rotate(-180.000000) translate(-50.500000, -16.500000) "/>
            <rect id="Rectangle-path" fill="#6D4122" x="29" y="40" width="28" height="6" rx="2"/>
            <rect id="Rectangle-path" fill="#825A2C" x="29" y="40" width="25" height="6" rx="2"/>
            <path d="M32,46 L36,46 L36,58 C36,58.5522847 35.5522847,59 35,59 L33,59 C32.4477153,59 32,58.5522847 32,58 L32,46 Z"
                  id="Shape" fill="#624421"/>
            <path d="M50,46 L54,46 L54,58 C54,58.5522847 53.5522847,59 53,59 L51,59 C50.4477153,59 50,58.5522847 50,58 L50,46 Z"
                  id="Shape" fill="#624421"/>
            <path d="M22.5,59 L20.216,59 C19.7182363,59.0000831 19.2528526,58.7532352 18.9737448,58.3410853 C18.694637,57.9289355 18.6381637,57.4051734 18.823,56.943 L19.514,55.216 C19.791863,54.5190439 20.5419547,54.1346005 21.27,54.316 L22.864,54.716 C23.5315951,54.8829946 23.9999245,55.4828354 24,56.171 L24,57.5 C24,58.3284271 23.3284271,59 22.5,59 Z"
                  id="Shape" fill="#F9EAB0"/>
            <path d="M42.1,59 L44.281,59 C44.944713,59.0000445 45.5652143,58.6708241 45.937297,58.1212156 C46.3093797,57.5716072 46.3845694,56.8732131 46.138,56.257 L45.505,54.675 C45.1344807,53.7454168 44.133942,53.2327582 43.163,53.475 L41.615,53.862 C40.7247408,54.0845301 40.1001389,54.8843502 40.1,55.802 L40.1,57 C40.1,57.530433 40.3107137,58.0391408 40.6857864,58.4142136 C41.0608592,58.7892863 41.569567,59 42.1,59 Z"
                  id="Shape" fill="#F9EAB0"/>
            <path d="M20.2,18.01 L18.65,22.6 C18.097445,24.2218061 16.5733503,25.3115941 14.86,25.31 C14.039245,25.3112526 13.2386087,25.056028 12.57,24.58 L12.08,24.23 L10,22.76 L7.04,20.67 C6.37903204,20.2012546 5.98736674,19.4403049 5.99,18.63 C5.9901749,18.110801 6.15084231,17.6043493 6.45,17.18 C6.96042788,16.4453541 7.83030407,16.0468205 8.72,16.14 C9.15575087,16.1743198 9.5739855,16.3264051 9.93,16.58 L10,16.63 L12.33,18.28 L13.75,19.29 C13.8790461,19.3801162 14.0429927,19.4042075 14.1925081,19.3550247 C14.3420236,19.305842 14.4596524,19.1891272 14.51,19.04 L15.45,16.37 C15.8032488,15.3636592 16.7534605,14.6900914 17.82,14.69 C18.1026665,14.6884957 18.3834663,14.7358595 18.65,14.83 C19.9516246,15.2852167 20.6433011,16.7042692 20.2,18.01 Z"
                  id="Shape" fill="#DFC49C"/>
            <path d="M18.2,17.01 L16.65,21.6 C16.097445,23.2218061 14.5733503,24.3115941 12.86,24.31 C12.5980509,24.3081364 12.3368736,24.281349 12.08,24.23 L10,22.76 L7.04,20.67 C6.37903204,20.2012546 5.98736674,19.4403049 5.99,18.63 C5.9901749,18.110801 6.15084231,17.6043493 6.45,17.18 C6.96042788,16.4453541 7.83030407,16.0468205 8.72,16.14 L11.75,18.29 C11.9237101,18.4170788 12.1607739,18.4129915 12.33,18.28 L13.75,19.29 C13.8790461,19.3801162 14.0429927,19.4042075 14.1925081,19.3550247 C14.3420236,19.305842 14.4596524,19.1891272 14.51,19.04 L15.45,16.37 C15.8032488,15.3636592 16.7534605,14.6900914 17.82,14.69 C18.3281032,15.3505048 18.4708335,16.2219107 18.2,17.01 Z"
                  id="Shape" fill="#FFE0B2"/>
            <path d="M19.58,9.54 L17.77,10.37 L12.53,12.79 C12.3787439,12.8565365 12.2045524,12.8451863 12.0632095,12.7595843 C11.9218666,12.6739823 11.8311085,12.52487 11.82,12.36 L11.61,8.05 C11.6006964,7.94683759 11.6291202,7.84380146 11.69,7.76 L11.7,7.75 C11.7470591,7.67364983 11.8170658,7.61414414 11.9,7.58 L17.49,5 C17.7442036,4.88885499 18.0407378,4.99950209 18.16,5.25 L19.83,8.88 C19.9426521,9.13130663 19.8308767,9.4263937 19.58,9.54 Z"
                  id="Shape" fill="#545C60"/>
            <path d="M17.77,10.37 L12.53,12.79 C12.3787439,12.8565365 12.2045524,12.8451863 12.0632095,12.7595843 C11.9218666,12.6739823 11.8311085,12.52487 11.82,12.36 L11.61,8.05 C11.6006964,7.94683759 11.6291202,7.84380146 11.69,7.76 L11.7,7.75 L15.49,6 C15.7442036,5.88885499 16.0407378,5.99950209 16.16,6.25 L17.83,9.88 C17.9019593,10.0418902 17.8788942,10.2302551 17.77,10.37 Z"
                  id="Shape" fill="#7F8E94"/>
            <path d="M8.58,60 C7.34900581,59.9993984 6.18631897,59.4341259 5.42553432,58.4663688 C4.66474967,57.4986117 4.38995735,56.235337 4.68,55.039 L7.026,44.885 C7.10788764,44.5385661 7.10100851,44.1770676 7.006,43.834 L4.185,33.9 C2.89402633,33.5437099 1.99987186,32.369237 2,31.03 L2,17 C2,14.2385763 4.23857625,12 7,12 C9.76142375,12 12,14.2385763 12,17 L12,17.34 C12,17.8922847 11.5522847,18.34 11,18.34 C10.4477153,18.34 10,17.8922847 10,17.34 L10,17 C10,15.9282032 9.42820326,14.9378221 8.50000002,14.4019237 C7.57179678,13.8660253 6.42820322,13.8660253 5.49999998,14.4019237 C4.57179674,14.9378221 3.99999998,15.9282032 4,17 L4,31.03 C4.0005512,31.5654877 4.43451227,31.9994488 4.97,32 C5.41713866,32.0000063 5.80993115,32.2968463 5.932,32.727 L8.932,43.297 C9.11740548,43.9647512 9.13116425,44.6685123 8.972,45.343 L6.624,55.505 C6.45001164,56.1989884 6.65947818,56.9330818 7.1734956,57.4307544 C7.68751303,57.9284269 8.42798986,58.1140703 9.11599563,57.9177544 C9.80400141,57.7214385 10.3350117,57.1729884 10.509,56.479 C10.525,56.407 12.584,47.359 13.229,44.75 C13.3114216,44.4148016 13.3048722,44.0638893 13.21,43.732 L10.038,32.563 C10.0127927,32.4741903 10.0000046,32.3823178 10,32.29 L10,23.47 C10,22.9177153 10.4477153,22.47 11,22.47 C11.5522847,22.47 12,22.9177153 12,23.47 L12,32.151 L15.132,43.177 C15.3228432,43.8439077 15.3369723,44.5489821 15.173,45.223 C14.53,47.823 12.473,56.851 12.455,56.942 C12.0235634,58.7332759 10.4224973,59.9967752 8.58,60 Z"
                  id="Shape" fill="#000000"/>
            <path d="M14.857,26.313 C13.8400828,26.3116379 12.8482096,25.9974225 12.016,25.413 L11.992,25.396 L6.464,21.481 C5.44275631,20.7587876 4.88438395,19.5466088 4.99921638,18.3010796 C5.11404882,17.0555505 5.88464026,15.9658964 7.02071638,15.4425796 C8.1567925,14.9192629 9.48575631,15.0417876 10.507,15.764 L13.786,18.087 L14.504,16.038 C15.1363661,14.2030339 17.1365339,13.228134 18.9715,13.8605 C20.806466,14.4928661 21.781366,16.4930339 21.149,18.328 L19.6,22.918 C19.1020021,24.41264 17.9217566,25.58063 16.422,26.063 C15.9167463,26.2281978 15.3885744,26.3125703 14.857,26.313 Z M13.129,23.751 L13.147,23.764 C13.918003,24.306165 14.89946,24.4531873 15.7954874,24.1607434 C16.6915149,23.8682996 17.3972751,23.1706064 17.7,22.278 L19.253,17.688 C19.4294892,17.1765743 19.3197296,16.6098416 18.9650665,16.2012846 C18.6104035,15.7927277 18.0647188,15.6044159 17.5335665,15.7072846 C17.0024143,15.8101533 16.5664892,16.1885743 16.39,16.7 L15.451,19.375 C15.2952099,19.8192379 14.9399023,20.1645684 14.4914086,20.3076462 C14.0429149,20.4507239 13.5532671,20.3749497 13.169,20.103 L9.42,17.446 C9.0942002,17.1958866 8.68128405,17.0877685 8.27471608,17.1461185 C7.86814811,17.2044685 7.50230637,17.4243528 7.26,17.756 C7.02942214,18.0812114 6.93778797,18.4848331 7.00533431,18.8777276 C7.07288065,19.2706222 7.29405054,19.6204666 7.62,19.85 L13.129,23.751 Z"
                  id="Shape" fill="#000000"/>
            <path d="M23.067,23 C23.019,23 22.967,23 22.921,23 C22.3687153,22.9947533 21.9252533,22.5427847 21.9305,21.9905 C21.9357467,21.4382153 22.3877153,20.9947533 22.94,21 L22.95,21 C24.312332,21.0612064 25.543472,20.1928681 25.943,18.889 C25.9566934,18.8434684 25.97374,18.7990135 25.994,18.756 L27.934,12.417 C28.1751172,11.6216434 27.728182,10.7809583 26.934,10.536 C26.5530186,10.4161847 26.1398551,10.4546581 25.7875463,10.6427567 C25.4352376,10.8308554 25.1734019,11.1527659 25.061,11.536 C25.061,11.554 25.019,11.653 25.013,11.672 L23.7,16 C23.5583868,16.4573224 23.2092047,16.8209611 22.758,16.981 C22.3134327,17.1379331 21.8206322,17.0728953 21.432,16.806 L19.072,15.28 L19.101,15.292 L19.07,15.279 C18.5764153,15.0532322 18.3530392,14.4749506 18.5666821,13.975998 C18.780325,13.4770455 19.3529774,13.2396095 19.857,13.441 C19.9855016,13.4910601 20.1066085,13.5583417 20.217,13.641 L21.982,14.78 L23.128,11.026 C23.133,11.007 23.17,10.908 23.176,10.89 C23.7485288,9.06841148 25.6861717,8.05264664 27.51,8.618 C29.3634019,9.1852003 30.4088714,11.1446731 29.848,13 L27.867,19.474 C27.8511205,19.5231773 27.8320808,19.5712774 27.81,19.618 C27.1141902,21.6430804 25.2082841,23.0020883 23.067,23 Z M22.518,15.133 L22.533,15.143 L22.518,15.133 Z"
                  id="Shape" fill="#000000"/>
            <path d="M12.323,13.832 C11.5229998,13.8330006 10.8629994,13.2060003 10.823,12.407 L10.605,8.107 C10.571817,7.49383483 10.9179484,6.92303545 11.477,6.669 L17.077,4.094 C17.4383555,3.92756176 17.8510297,3.91149569 18.2242313,4.04933646 C18.5974328,4.18717722 18.9005879,4.46763252 19.067,4.829 L20.738,8.465 C21.082187,9.21751434 20.7519637,10.1066116 20,10.452 L12.95,13.7 C12.7529467,13.788646 12.5390678,13.8336731 12.323,13.832 Z M12.623,8.342 L12.786,11.569 L18.712,8.844 L17.458,6.118 L12.623,8.342 Z"
                  id="Shape" fill="#000000"/>
            <path d="M21,24 C19.8311344,23.9976301 18.7687402,23.320534 18.273,22.262 L18.115,21.926 C17.8797267,21.4261823 18.0941823,20.8302733 18.594,20.595 C19.0938177,20.3597267 19.6897267,20.5741823 19.925,21.074 L20.085,21.414 C20.326638,21.9169128 20.9253267,22.1352633 21.434,21.906 C21.9297205,21.6669476 22.1417031,21.0741979 21.91,20.575 L17.73,11.5 L15.915,12.335 L17.089,14.898 C17.3086761,15.3980331 17.0865288,15.9818279 16.5900081,16.2093316 C16.0934874,16.4368353 15.5062751,16.2238857 15.271,15.731 L13.681,12.26 C13.4511887,11.758507 13.6708861,11.165637 14.172,10.935 L17.802,9.265 C18.3037543,9.03451712 18.8973558,9.25431978 19.128,9.756 L23.728,19.746 C24.4169663,21.253144 23.7604336,23.0338214 22.258,23.733 C21.8617851,23.9084778 21.433334,23.999413 21,24 Z"
                  id="Shape" fill="#000000"/>
            <path d="M7,14 C3.13400675,14 -4.4408921e-16,10.8659932 -8.8817842e-16,7 C-1.33226763e-15,3.13400675 3.13400675,7.10171439e-16 7,0 C10.8659932,-7.10171439e-16 14,3.13400675 14,7 C14.0024217,7.55906746 13.5588201,8.01819511 13,8.035 C12.7385255,8.04281702 12.4849577,7.94480251 12.2967198,7.76315302 C12.108482,7.58150353 12.0014996,7.33158701 12,7.07 L12,7 C12,4.23857625 9.76142375,2 7,2 C4.23857625,2 2,4.23857625 2,7 C2,9.76142375 4.23857625,12 7,12 C8.54673587,12.0075071 10.0076267,11.2898311 10.947,10.061 C11.2865538,9.63358175 11.906134,9.55744019 12.339074,9.889925 C12.772014,10.2224098 12.858326,10.8406552 12.533,11.279 C11.2166757,13.0025842 9.16872258,14.0097197 7,14 Z"
                  id="Shape" fill="#000000"/>
            <path d="M53,41 L33,41 C32.4477153,41 32,40.5522847 32,40 L32,36 C32,29.9248678 36.9248678,25 43,25 C49.0751322,25 54,29.9248678 54,36 L54,40 C54,40.5522847 53.5522847,41 53,41 Z M34,39 L52,39 L52,36 C52,31.0294373 47.9705627,27 43,27 C38.0294373,27 34,31.0294373 34,36 L34,39 Z"
                  id="Shape" fill="#000000"/>
            <path d="M44.3,27 L41.7,27 C40.2959339,26.9962581 38.9956122,26.2600409 38.27,25.058 L36.57,22.227 C36.19701,21.6053306 35.9999884,20.8939789 36,20.169 L36,13.252 C36.0086848,11.2676838 36.8139512,9.36999332 38.235,7.985 C39.5424071,6.67414103 41.3301117,5.95667364 43.181,6 C46.9738459,6.10337914 49.995996,9.20574762 50,13 L50,20.169 C50.0001929,20.8943184 49.8031647,21.6060395 49.43,22.228 L47.73,25.058 C47.0048132,26.2604783 45.7042222,26.9968479 44.3,27 Z M43.013,8 C41.7432527,8.00951482 40.5283021,8.51855829 39.631,9.417 C38.5954297,10.4251482 38.0078377,11.8067639 38,13.252 L38,20.169 C38.0003443,20.5314418 38.0988297,20.8870261 38.285,21.198 L39.985,24.029 C40.3481597,24.6296568 40.9980969,24.9976387 41.7,25 L44.3,25 C45.0022597,24.9979872 45.6526553,24.6299604 46.016,24.029 L47.716,21.198 C47.9021446,20.8870647 48.0003079,20.5313954 48,20.169 L48,13 C47.9956501,10.2907008 45.8382448,8.07570557 43.13,8 L43.013,8 Z"
                  id="Shape" fill="#000000"/>
            <path d="M37,20 L36,20 C34.3431458,20 33,18.6568542 33,17 L33,16 C33,14.3431458 34.3431458,13 36,13 L37,13 C37.5522847,13 38,13.4477153 38,14 L38,19 C38,19.5522847 37.5522847,20 37,20 Z M36,15 C35.4477153,15 35,15.4477153 35,16 L35,17 C35,17.5522847 35.4477153,18 36,18 L36,15 Z"
                  id="Shape" fill="#000000"/>
            <path d="M50,20 L49,20 C48.4477153,20 48,19.5522847 48,19 L48,14 C48,13.4477153 48.4477153,13 49,13 L50,13 C51.6568542,13 53,14.3431458 53,16 L53,17 C53,18.6568542 51.6568542,20 50,20 Z M50,15 L50,18 C50.5522847,18 51,17.5522847 51,17 L51,16 C51,15.4477153 50.5522847,15 50,15 Z"
                  id="Shape" fill="#000000"/>
            <path d="M43,20 C42.5039829,20.0009514 42.0822304,19.6381632 42.0090309,19.1475761 C41.9358314,18.656989 42.2333099,18.1868858 42.708,18.043 C42.5864881,17.4958122 42.3889003,16.9683505 42.121,16.476 C41.9388097,16.1609465 41.9421678,15.7717865 42.1297677,15.459924 C42.3173677,15.1480614 42.6595861,14.9627418 43.0232817,14.9760643 C43.3869773,14.9893868 43.7147198,15.1992477 43.879,15.524 C44.279,16.262 45.138,18.102 44.471,19.224 C44.1606803,19.7334968 43.5957275,20.0315276 43,20 Z"
                  id="Shape" fill="#000000"/>
            <path d="M44,23 L43,23 C42.4477153,23 42,22.5522847 42,22 C42,21.4477153 42.4477153,21 43,21 L44,21 C44.5522847,21 45,21.4477153 45,22 C45,22.5522847 44.5522847,23 44,23 Z"
                  id="Shape" fill="#000000"/>
            <path d="M39,37 L38,37 C37.4477153,37 37,36.5522847 37,36 C37,35.4477153 37.4477153,35 38,35 L39,35 C39.5522847,35 40,35.4477153 40,36 C40,36.5522847 39.5522847,37 39,37 Z"
                  id="Shape" fill="#000000"/>
            <path d="M48,37 L47,37 C46.4477153,37 46,36.5522847 46,36 C46,35.4477153 46.4477153,35 47,35 L48,35 C48.5522847,35 49,35.4477153 49,36 C49,36.5522847 48.5522847,37 48,37 Z"
                  id="Shape" fill="#000000"/>
            <path d="M55,47 L31,47 C29.3431458,47 28,45.6568542 28,44 L28,42 C28,40.3431458 29.3431458,39 31,39 L55,39 C56.6568542,39 58,40.3431458 58,42 L58,44 C58,45.6568542 56.6568542,47 55,47 Z M31,41 C30.4477153,41 30,41.4477153 30,42 L30,44 C30,44.5522847 30.4477153,45 31,45 L55,45 C55.5522847,45 56,44.5522847 56,44 L56,42 C56,41.4477153 55.5522847,41 55,41 L31,41 Z"
                  id="Shape" fill="#000000"/>
            <path d="M35,60 L33,60 C31.8954305,60 31,59.1045695 31,58 L31,46 C31,45.4477153 31.4477153,45 32,45 L36,45 C36.5522847,45 37,45.4477153 37,46 L37,58 C37,59.1045695 36.1045695,60 35,60 Z M33,47 L33,58 L35,58 L35,47 L33,47 Z"
                  id="Shape" fill="#000000"/>
            <path d="M53,60 L51,60 C49.8954305,60 49,59.1045695 49,58 L49,46 C49,45.4477153 49.4477153,45 50,45 L54,45 C54.5522847,45 55,45.4477153 55,46 L55,58 C55,59.1045695 54.1045695,60 53,60 Z M51,47 L51,58 L53,58 L53,47 L51,47 Z"
                  id="Shape" fill="#000000"/>
            <path d="M41,34 C40.8028084,33.999847 40.6100634,33.9413972 40.446,33.832 L37.446,31.832 C37.148755,31.6337176 36.9798718,31.2919188 37.0029669,30.9353559 C37.026062,30.578793 37.2376268,30.2616364 37.5579669,30.1033559 C37.8783069,29.9450754 38.258755,29.9697176 38.556,30.168 L41.556,32.168 C41.9228102,32.4125875 42.0861634,32.868538 41.9581268,33.290414 C41.8300902,33.7122901 41.4408769,34.0005403 41,34 Z"
                  id="Shape" fill="#000000"/>
            <path d="M45,34 C44.5591231,34.0005403 44.1699098,33.7122901 44.0418732,33.290414 C43.9138366,32.868538 44.0771898,32.4125875 44.444,32.168 L47.444,30.168 C47.9035009,29.861482 48.524482,29.9854991 48.831,30.445 C49.137518,30.9045009 49.0135009,31.525482 48.554,31.832 L45.554,33.832 C45.3899366,33.9413972 45.1971916,33.999847 45,34 Z"
                  id="Shape" fill="#000000"/>
            <circle id="Oval" fill="#000000" cx="30" cy="25" r="1"/>
            <circle id="Oval" fill="#000000" cx="27" cy="27" r="1"/>
            <circle id="Oval" fill="#000000" cx="30" cy="30" r="1"/>
            <circle id="Oval" fill="#000000" cx="24" cy="50" r="1"/>
            <circle id="Oval" fill="#000000" cx="27" cy="59" r="1"/>
            <circle id="Oval" fill="#000000" cx="15" cy="59" r="1"/>
            <path d="M31,15 L23,12" id="Shape" fill="#000000"/>
            <path d="M31,16 C30.8802251,15.9995883 30.7614417,15.9782682 30.649,15.937 L22.649,12.937 C22.3142421,12.8119571 22.0716227,12.5178214 22.0125342,12.1653911 C21.9534456,11.8129608 22.0868649,11.4557784 22.3625342,11.2283911 C22.6382035,11.0010038 23.0142421,10.937957 23.349,11.063 L31.349,14.063 C31.8022849,14.2319922 32.0696048,14.7012246 31.983824,15.1773204 C31.8980432,15.6534162 31.4837619,15.9998407 31,16 Z"
                  id="Shape" fill="#000000"/>
            <path d="M22.5,60 L20.215,60 C19.385599,59.9998732 18.6102551,59.5884139 18.145251,58.9016263 C17.6802469,58.2148387 17.5861263,57.3421427 17.894,56.572 L18.585,54.844 C19.0512087,53.6850648 20.2989645,53.0456272 21.512,53.344 L23.106,53.744 C24.2196469,54.0222461 25.0007158,55.0231194 25,56.171 L25,57.5 C25,58.8807119 23.8807119,60 22.5,60 Z M20.908,55.273 C20.7034005,55.2736028 20.5193826,55.3975976 20.442,55.587 L19.751,57.314 C19.6892668,57.4680397 19.7079833,57.6426717 19.8009582,57.7801303 C19.8939331,57.9175889 20.0490506,57.9999614 20.215,58 L22.5,58 C22.7761424,58 23,57.7761424 23,57.5 L23,56.171 C22.9999366,55.9415148 22.8436641,55.7415354 22.621,55.686 L21.027,55.286 C20.9881086,55.2762781 20.9480732,55.2719045 20.908,55.273 Z"
                  id="Shape" fill="#000000"/>
            <path d="M44.284,60 L42.1,60 C40.4431458,60 39.1,58.6568542 39.1,57 L39.1,55.8 C39.100151,54.4236709 40.0368097,53.2239892 41.372,52.89 L42.92,52.502 C44.3761489,52.1431481 45.8743926,52.9106037 46.434,54.302 L47.066,55.884 C47.4362679,56.8079095 47.3241881,57.8553098 46.7668118,58.6799544 C46.2094354,59.504599 45.2793423,59.999105 44.284,60 Z M43.649,54.418 C43.568072,54.4181128 43.4874657,54.4281886 43.409,54.448 L41.86,54.835 C41.4150689,54.9464591 41.1030121,55.3463206 41.103,55.805 L41.103,57 C41.103,57.5522847 41.5507153,58 42.103,58 L44.284,58 C44.6156373,57.9997901 44.9255976,57.8351789 45.1114939,57.5605411 C45.2973903,57.2859033 45.3350375,56.9369694 45.212,56.629 L44.579,55.046 C44.4267373,54.6660647 44.0583095,54.4172769 43.649,54.418 Z"
                  id="Shape" fill="#000000"/>
        </g>
    </g>
</svg>
